<mxfile host="app.diagrams.net" modified="2024-02-27T03:27:06.578Z" agent="Mozilla/5.0 (Windows NT 10.0; Win64; x64) AppleWebKit/537.36 (KHTML, like Gecko) Chrome/122.0.0.0 Safari/537.36" version="23.1.7" etag="jzGMKgb9md2VL7hopW3a" type="github">
  <diagram name="Page-1" id="DVfuGTTi-v3JhufijJKv">
    <mxGraphModel>
      <root>
        <mxCell id="0" />
        <mxCell id="1" parent="0" />
      </root>
    </mxGraphModel>
  </diagram>
</mxfile>
